<svg xmlns="http://www.w3.org/2000/svg" width="71" height="63.222" viewBox="0 0 71 63.222">
  <defs>
    <style>
      .cls-1 {
        fill: #fff;
        stroke: #fff;
      }
    </style>
  </defs>
  <path id="Icon_awesome-brain" data-name="Icon awesome-brain" class="cls-1" d="M25.278,0a7.755,7.755,0,0,0-7.51,5.858c-.1,0-.17-.024-.267-.024a7.785,7.785,0,0,0-7.778,7.778,7.167,7.167,0,0,0,.207,1.7A9.638,9.638,0,0,0,4.9,28.547,9.686,9.686,0,0,0,6,45.925a8.906,8.906,0,0,0-.17,1.714,8.744,8.744,0,0,0,8.75,8.75,8.24,8.24,0,0,0,1.458-.146,8.729,8.729,0,0,0,17.014-2.771V7.778A7.785,7.785,0,0,0,25.278,0ZM70,36.944a9.672,9.672,0,0,0-4.9-8.4,9.565,9.565,0,0,0,1.009-4.241,9.722,9.722,0,0,0-6.04-8.993A7.706,7.706,0,0,0,52.5,5.833c-.1,0-.182.024-.267.024a7.763,7.763,0,0,0-15.288,1.92V53.472a8.729,8.729,0,0,0,17.014,2.771,8.24,8.24,0,0,0,1.458.146,8.744,8.744,0,0,0,8.75-8.75A8.906,8.906,0,0,0,64,45.925,9.722,9.722,0,0,0,70,36.944Z" transform="translate(0.5 0.5)"/>
</svg>
