<svg xmlns="http://www.w3.org/2000/svg" width="75.285" height="65.999" viewBox="0 0 75.285 65.999">
  <defs>
    <style>
      .cls-1 {
        fill: #fff;
        stroke: #fff;
      }
    </style>
  </defs>
  <path id="Icon_awesome-briefcase" data-name="Icon awesome-briefcase" class="cls-1" d="M46.428,46.356a2.321,2.321,0,0,1-2.321,2.321H30.178a2.321,2.321,0,0,1-2.321-2.321V39.392H0V60.285a7.14,7.14,0,0,0,6.964,6.964H67.32a7.14,7.14,0,0,0,6.964-6.964V39.392H46.428ZM67.32,16.178H55.713V9.214A7.14,7.14,0,0,0,48.749,2.25H25.535a7.14,7.14,0,0,0-6.964,6.964v6.964H6.964A7.14,7.14,0,0,0,0,23.143V34.75H74.285V23.143A7.14,7.14,0,0,0,67.32,16.178Zm-20.893,0H27.857V11.536H46.428Z" transform="translate(0.5 -1.75)"/>
</svg>
