<svg xmlns="http://www.w3.org/2000/svg" width="71" height="71" viewBox="0 0 71 71">
  <defs>
    <style>
      .cls-1 {
        fill: #fff;
        stroke: #fff;
      }
    </style>
  </defs>
  <path id="Icon_open-dashboard" data-name="Icon open-dashboard" class="cls-1" d="M35,0A35,35,0,1,0,70,35,35.1,35.1,0,0,0,35,0Zm0,8.75A26.25,26.25,0,1,1,8.75,35,26.215,26.215,0,0,1,35,8.75Zm0,8.75a4.375,4.375,0,1,0,4.375,4.375A4.333,4.333,0,0,0,35,17.5ZM20.475,26.25a4.375,4.375,0,0,0-1.662,7.35l7.962,7.962a8.885,8.885,0,0,0-.525,2.187A8.75,8.75,0,1,0,35,35a8.885,8.885,0,0,0-2.187.525L24.85,27.562a4.375,4.375,0,0,0-3.85-1.4,4.376,4.376,0,0,0-.525,0Zm27.65,0A4.375,4.375,0,1,0,52.5,30.625,4.333,4.333,0,0,0,48.125,26.25Z" transform="translate(0.5 0.5)"/>
</svg>
