<svg xmlns="http://www.w3.org/2000/svg" width="31.869" height="55.815" viewBox="0 0 31.869 55.815">
  <path id="Icon_awesome-dollar-sign" data-name="Icon awesome-dollar-sign" d="M22.4,24.988,10.833,21.6a3.158,3.158,0,0,1,.889-6.188h7.1a6.535,6.535,0,0,1,3.662,1.124,1.669,1.669,0,0,0,2.088-.214l3.726-3.64a1.735,1.735,0,0,0-.193-2.623,15.139,15.139,0,0,0-9.261-3.212V1.713A1.718,1.718,0,0,0,17.128,0H13.7A1.718,1.718,0,0,0,11.99,1.713V6.852h-.268a11.73,11.73,0,0,0-11.67,12.8A12.256,12.256,0,0,0,9.024,30L20,33.21a3.158,3.158,0,0,1-.889,6.188h-7.1a6.535,6.535,0,0,1-3.661-1.124,1.669,1.669,0,0,0-2.088.214l-3.726,3.64a1.735,1.735,0,0,0,.193,2.623,15.139,15.139,0,0,0,9.261,3.212V53.1A1.718,1.718,0,0,0,13.7,54.815h3.426A1.718,1.718,0,0,0,18.841,53.1v-5.16a12.094,12.094,0,0,0,11.316-7.783A11.756,11.756,0,0,0,22.4,24.988Z" transform="translate(0.504 0.5)" fill="#fff" stroke="#fff" stroke-width="1"/>
</svg>
