<svg xmlns="http://www.w3.org/2000/svg" width="71.58" height="70.628" viewBox="0 0 71.58 70.628">
  <defs>
    <style>
      .cls-1 {
        fill: #fff;
        stroke: #fff;
      }
    </style>
  </defs>
  <path id="Icon_ionic-md-hammer" data-name="Icon ionic-md-hammer" class="cls-1" d="M71.9,59.03,33.412,23.306S34.8,14.36,37.539,12.173A76.048,76.048,0,0,1,45.1,7.212V2.25c-5.041,0-9.263,1.287-15.265,4.233a46.773,46.773,0,0,0-11.72,8.59,38.931,38.931,0,0,0-3.891,4.481,4.851,4.851,0,0,0-.835,3.117l-3.1,2.636-.63-.62a.972.972,0,0,0-1.339,0l-5.8,5.706a.935.935,0,0,0,0,1.318l9.357,9.21a.972.972,0,0,0,1.339,0l5.8-5.706a.935.935,0,0,0,0-1.318l-1.623-1.6,2.3-2.217a10.073,10.073,0,0,1,6.159-.791L59.7,70.737a3.119,3.119,0,0,0,4.49,0l7.372-7.3A2.784,2.784,0,0,0,71.9,59.03Z" transform="translate(-1.748 -1.75)"/>
</svg>
