<svg xmlns="http://www.w3.org/2000/svg" width="25.37" height="67.658" viewBox="0 0 25.37 67.658">
  <defs>
    <style>
      .cls-1 {
        fill: #fff;
      }
    </style>
  </defs>
  <g id="Icon_ionic-md-man" data-name="Icon ionic-md-man" transform="translate(-12.094 -2.25)">
    <path id="Tracé_9" data-name="Tracé 9" class="cls-1" d="M21.01,13.516a5.633,5.633,0,1,0-5.633-5.633A5.614,5.614,0,0,0,21.01,13.516Z" transform="translate(3.769)"/>
    <path id="Tracé_10" data-name="Tracé 10" class="cls-1" d="M30.427,8.086h-11.3A7.23,7.23,0,0,0,12.094,15.4V32.55a2.345,2.345,0,1,0,4.681,0V16.694h.906v43.13c0,4.591,6.343,4.44,6.494,0V34.966h1.208V59.839a3.249,3.249,0,1,0,6.494-.015V16.694h.755V32.55a2.417,2.417,0,1,0,4.832,0V15.4A7.249,7.249,0,0,0,30.427,8.086Z" transform="translate(0 6.698)"/>
  </g>
</svg>
