<svg xmlns="http://www.w3.org/2000/svg" width="71.026" height="71.026" viewBox="0 0 71.026 71.026">
  <defs>
    <style>
      .cls-1 {
        fill: #fff;
        stroke: #fff;
      }
    </style>
  </defs>
  <path id="Icon_awesome-microscope" data-name="Icon awesome-microscope" class="cls-1" d="M21.883,43.766h1.641v2.188a2.188,2.188,0,0,0,2.188,2.188h5.471a2.188,2.188,0,0,0,2.188-2.188V43.766h1.641A4.377,4.377,0,0,0,39.39,39.39V8.753a4.377,4.377,0,0,0-4.377-4.377V2.188A2.188,2.188,0,0,0,32.825,0H24.071a2.188,2.188,0,0,0-2.188,2.188V4.377a4.377,4.377,0,0,0-4.377,4.377V39.39A4.377,4.377,0,0,0,21.883,43.766ZM63.461,61.273h-.176A26.216,26.216,0,0,0,43.766,17.506V26.26a17.506,17.506,0,0,1,0,35.013H6.565A6.565,6.565,0,0,0,0,67.838a2.188,2.188,0,0,0,2.188,2.188H67.838a2.188,2.188,0,0,0,2.188-2.188A6.565,6.565,0,0,0,63.461,61.273ZM14.224,56.9H42.672A1.094,1.094,0,0,0,43.766,55.8V53.614a1.094,1.094,0,0,0-1.094-1.094H14.224a1.094,1.094,0,0,0-1.094,1.094V55.8A1.094,1.094,0,0,0,14.224,56.9Z" transform="translate(0.5 0.5)"/>
</svg>
