<svg xmlns="http://www.w3.org/2000/svg" width="71" height="45.545" viewBox="0 0 71 45.545">
  <defs>
    <style>
      .cls-1 {
        fill: #fff;
        stroke: #fff;
      }
    </style>
  </defs>
  <path id="Icon_material-people" data-name="Icon material-people" class="cls-1" d="M49.394,27.424a9.545,9.545,0,1,0-9.545-9.545,9.506,9.506,0,0,0,9.545,9.545Zm-25.455,0a9.545,9.545,0,1,0-9.545-9.545,9.506,9.506,0,0,0,9.545,9.545Zm0,6.364c-7.414,0-22.273,3.723-22.273,11.136v7.955H46.212V44.924c0-7.414-14.859-11.136-22.273-11.136Zm25.455,0c-.923,0-1.973.064-3.086.159C50,36.62,52.576,40.215,52.576,44.924v7.955H71.667V44.924c0-7.414-14.859-11.136-22.273-11.136Z" transform="translate(-1.167 -7.833)"/>
</svg>
