<svg xmlns="http://www.w3.org/2000/svg" width="71.164" height="70.999" viewBox="0 0 71.164 70.999">
  <defs>
    <style>
      .cls-1 {
        fill: #fff;
        stroke: #fff;
      }
    </style>
  </defs>
  <path id="Icon_ionic-md-settings" data-name="Icon ionic-md-settings" class="cls-1" d="M65.33,42.249a21.887,21.887,0,0,0,.178-3.5c0-1.225-.178-2.275-.178-3.5l7.516-5.775A1.607,1.607,0,0,0,73.2,27.2l-7.16-12.076a1.743,1.743,0,0,0-2.148-.7l-8.949,3.5a26.051,26.051,0,0,0-6.085-3.5L47.61,5.15a1.918,1.918,0,0,0-1.79-1.4H31.5a1.918,1.918,0,0,0-1.79,1.4l-1.432,9.274a30.31,30.31,0,0,0-6.086,3.5l-8.949-3.5a1.676,1.676,0,0,0-2.148.7L3.935,27.2a2.114,2.114,0,0,0,.358,2.275l7.7,5.774c0,1.225-.178,2.275-.178,3.5s.178,2.275.178,3.5L4.474,48.024A1.607,1.607,0,0,0,4.116,50.3l7.16,12.076a1.743,1.743,0,0,0,2.148.7l8.95-3.5a26.048,26.048,0,0,0,6.085,3.5l1.432,9.274a1.735,1.735,0,0,0,1.79,1.4H46a1.918,1.918,0,0,0,1.79-1.4l1.433-9.274a30.293,30.293,0,0,0,6.085-3.5l8.95,3.5a1.677,1.677,0,0,0,2.148-.7L73.564,50.3a2.11,2.11,0,0,0-.358-2.275ZM38.66,51a12.253,12.253,0,1,1,0-24.5,12.253,12.253,0,1,1,0,24.5Z" transform="translate(-3.168 -3.25)"/>
</svg>
