<svg xmlns="http://www.w3.org/2000/svg" width="73.169" height="70.055" viewBox="0 0 73.169 70.055">
  <defs>
    <style>
      .cls-1 {
        fill: #fff;
        stroke: #fff;
      }
    </style>
  </defs>
  <path id="Icon_awesome-star" data-name="Icon awesome-star" class="cls-1" d="M33.62,2.4l-8.8,17.841L5.134,23.111a4.314,4.314,0,0,0-2.385,7.357L16.992,44.347,13.623,63.954a4.31,4.31,0,0,0,6.252,4.541l17.612-9.257L55.1,68.495a4.313,4.313,0,0,0,6.252-4.541L57.983,44.347,72.226,30.468a4.314,4.314,0,0,0-2.385-7.357L50.154,20.24,41.355,2.4a4.316,4.316,0,0,0-7.735,0Z" transform="translate(-0.903 0.501)"/>
</svg>
